<svg height="507pt" viewBox="0 -5 507.31201 507" width="507pt" xmlns="http://www.w3.org/2000/svg"><g fill="#48c8ef"><path d="m59.3125 130.09375-59.3125-59.3125 22.625-22.625 36.6875 36.6875 84.6875-84.6875 22.625 22.625zm0 0"/><path d="m59.3125 306.09375-59.3125-59.3125 22.625-22.625 36.6875 36.6875 84.6875-84.6875 22.625 22.625zm0 0"/><path d="m59.3125 498.09375-59.3125-59.3125 22.625-22.625 36.6875 36.6875 84.6875-84.6875 22.625 22.625zm0 0"/><path d="m475.3125 411.46875h32v32h-32zm0 0"/><path d="m411.3125 411.46875h32v32h-32zm0 0"/></g><path d="m219.3125 411.46875h160v32h-160zm0 0" fill="#d7dee2"/><path d="m475.3125 219.46875h32v32h-32zm0 0" fill="#48c8ef"/><path d="m411.3125 219.46875h32v32h-32zm0 0" fill="#48c8ef"/><path d="m219.3125 219.46875h160v32h-160zm0 0" fill="#d7dee2"/><path d="m475.3125 59.46875h32v32h-32zm0 0" fill="#48c8ef"/><path d="m411.3125 59.46875h32v32h-32zm0 0" fill="#48c8ef"/><path d="m219.3125 59.46875h160v32h-160zm0 0" fill="#d7dee2"/></svg>